<svg width="1920" height="1080" viewBox="0 0 1920 1080" fill="none" xmlns="http://www.w3.org/2000/svg">
  <rect width="1920" height="1080" fill="#030607"/>
  <rect width="1920" height="1080" fill="url(#background)"/>
  <g opacity="0.38" filter="url(#softBlur)">
    <circle cx="540" cy="250" r="300" fill="#00E5FF"/>
    <circle cx="1380" cy="760" r="360" fill="#005DFF"/>
  </g>
  <g transform="translate(345 60)">
    <path d="M280 40C920 190 330 760 970 920" stroke="url(#strandA)" stroke-width="26" stroke-linecap="round"/>
    <path d="M970 40C330 190 920 760 280 920" stroke="url(#strandB)" stroke-width="26" stroke-linecap="round"/>
    <g stroke="#B7F8FF" stroke-width="10" stroke-linecap="round" opacity="0.82">
      <path d="M336 115H914"/>
      <path d="M420 205H830"/>
      <path d="M468 295H782"/>
      <path d="M475 385H775"/>
      <path d="M435 475H815"/>
      <path d="M355 565H895"/>
      <path d="M290 655H960"/>
      <path d="M290 745H960"/>
      <path d="M370 835H880"/>
    </g>
    <g filter="url(#glow)">
      <circle cx="280" cy="40" r="30" fill="#EAFDFF"/>
      <circle cx="970" cy="40" r="30" fill="#00E5FF"/>
      <circle cx="336" cy="115" r="22" fill="#00E5FF"/>
      <circle cx="914" cy="115" r="22" fill="#EAFDFF"/>
      <circle cx="420" cy="205" r="22" fill="#EAFDFF"/>
      <circle cx="830" cy="205" r="22" fill="#00E5FF"/>
      <circle cx="468" cy="295" r="22" fill="#00E5FF"/>
      <circle cx="782" cy="295" r="22" fill="#EAFDFF"/>
      <circle cx="475" cy="385" r="22" fill="#EAFDFF"/>
      <circle cx="775" cy="385" r="22" fill="#00E5FF"/>
      <circle cx="435" cy="475" r="22" fill="#00E5FF"/>
      <circle cx="815" cy="475" r="22" fill="#EAFDFF"/>
      <circle cx="355" cy="565" r="22" fill="#EAFDFF"/>
      <circle cx="895" cy="565" r="22" fill="#00E5FF"/>
      <circle cx="290" cy="655" r="22" fill="#00E5FF"/>
      <circle cx="960" cy="655" r="22" fill="#EAFDFF"/>
      <circle cx="290" cy="745" r="22" fill="#EAFDFF"/>
      <circle cx="960" cy="745" r="22" fill="#00E5FF"/>
      <circle cx="370" cy="835" r="22" fill="#00E5FF"/>
      <circle cx="880" cy="835" r="22" fill="#EAFDFF"/>
      <circle cx="280" cy="920" r="30" fill="#EAFDFF"/>
      <circle cx="970" cy="920" r="30" fill="#00E5FF"/>
    </g>
  </g>
  <g opacity="0.24">
    <path d="M220 858C320 790 430 825 525 750C630 668 714 665 820 702" stroke="#00E5FF" stroke-width="4"/>
    <path d="M1170 280C1280 220 1415 250 1518 188C1600 139 1690 128 1780 150" stroke="#EAFDFF" stroke-width="4"/>
  </g>
  <rect width="1920" height="1080" fill="url(#vignette)"/>
  <defs>
    <radialGradient id="background" cx="0" cy="0" r="1" gradientUnits="userSpaceOnUse" gradientTransform="translate(960 540) rotate(90) scale(760 1120)">
      <stop stop-color="#0B2730"/>
      <stop offset="0.48" stop-color="#061114"/>
      <stop offset="1" stop-color="#030607"/>
    </radialGradient>
    <linearGradient id="strandA" x1="270" y1="40" x2="980" y2="920" gradientUnits="userSpaceOnUse">
      <stop stop-color="#EAFDFF"/>
      <stop offset="0.5" stop-color="#00E5FF"/>
      <stop offset="1" stop-color="#94F6FF"/>
    </linearGradient>
    <linearGradient id="strandB" x1="970" y1="40" x2="280" y2="920" gradientUnits="userSpaceOnUse">
      <stop stop-color="#00E5FF"/>
      <stop offset="0.5" stop-color="#D6FCFF"/>
      <stop offset="1" stop-color="#00A6FF"/>
    </linearGradient>
    <radialGradient id="vignette" cx="0" cy="0" r="1" gradientUnits="userSpaceOnUse" gradientTransform="translate(960 540) scale(1050 620)">
      <stop offset="0.42" stop-color="#000" stop-opacity="0"/>
      <stop offset="1" stop-color="#000" stop-opacity="0.78"/>
    </radialGradient>
    <filter id="softBlur" x="-300" y="-300" width="2520" height="1680" filterUnits="userSpaceOnUse">
      <feGaussianBlur stdDeviation="120"/>
    </filter>
    <filter id="glow" x="180" y="-60" width="890" height="1080" filterUnits="userSpaceOnUse">
      <feGaussianBlur stdDeviation="4" result="blur"/>
      <feMerge>
        <feMergeNode in="blur"/>
        <feMergeNode in="SourceGraphic"/>
      </feMerge>
    </filter>
  </defs>
</svg>
